P3
64 64
255
66 7 201
111 245 186
90 238 212
37 58 138
160 41 188
154 117 218
215 32 23
139 155 34
159 99 66
130 77 180
81 167 9
40 145 92
109 200 54
70 237 43
148 131 228
124 175 96
124 114 97
169 175 187
35 216 192
247 228 31
16 242 131
100 153 22
135 249 104
244 255 170
185 236 93
3 149 245
179 5 164
161 215 71
15 90 168
0 137 185
41 135 202
185 240 106
48 167 171
87 163 164
177 56 219
20 161 53
194 143 79
33 73 170
243 204 49
173 119 165
51 99 87
144 230 201
76 203 9
150 89 105
221 72 189
64 58 32
109 29 40
7 125 39
229 208 2
56 199 81
16 218 214
91 143 242
79 109 94
188 90 69
23 30 182
68 139 139
130 127 242
91 36 76
165 149 75
237 146 3
70 175 143
186 116 22
4 216 59
15 75 101
118 78 34
42 157 180
56 146 153
98 144 51
62 101 75
181 192 223
52 146 224
190 128 191
146 102 220
22 51 154
77 180 118
7 65 37
123 143 234
23 102 157
211 85 210
115 71 151
95 21 157
35 36 20
147 145 179
62 255 57
212 246 182
217 67 223
130 205 57
88 151 221
246 190 234
9 181 150
46 108 45
200 154 206
46 11 181
136 83 245
207 225 244
110 177 170
121 42 93
247 109 38
140 205 156
124 201 89
69 127 76
56 44 11
118 29 11
116 114 75
6 17 39
46 236 229
222 65 228
159 184 84
234 26 247
175 103 249
117 248 13
51 34 157
196 38 68
53 89 180
217 191 22
141 136 163
245 92 72
155 181 125
88 123 129
147 159 48
87 172 32
69 153 7
46 131 69
47 183 14
15 39 186
105 251 153
87 156 149
14 158 229
150 15 89
101 242 30
148 168 60
251 239 80
2 45 162
229 161 161
97 236 123
228 183 146
134 55 245
125 199 12
31 117 114
231 146 215
72 146 176
57 184 185
23 208 10
12 142 105
99 103 161
79 39 47
34 149 182
29 182 3
138 186 155
239 215 212
142 214 209
245 1 1
233 214 23
76 250 245
133 75 10
12 202 98
209 120 228
223 158 135
127 126 184
38 66 28
46 27 12
84 105 110
166 176 94
218 171 144
196 113 158
127 0 249
80 75 61
237 220 82
223 85 5
229 103 221
6 93 160
164 110 6
165 181 227
163 42 198
202 206 179
252 95 42
54 18 217
2 112 254
92 143 87
207 151 38
121 232 53
175 165 197
62 210 94
244 208 72
114 18 201
80 249 200
64 188 193
31 83 195
113 194 84
122 208 48
72 68 245
48 65 21
18 85 37
143 101 170
147 82 216
23 144 116
63 17 2
134 36 109
14 107 193
221 185 18
0 250 88
172 160 205
150 210 158
100 143 193
213 46 47
175 120 35
189 229 155
51 176 153
188 247 144
228 220 220
27 51 75
206 17 241
250 57 95
236 68 206
24 123 103
39 134 35
54 234 167
176 18 158
236 232 136
6 63 61
2 65 189
10 25 181
119 210 248
11 99 134
126 85 65
66 72 42
217 44 64
59 77 199
38 71 1
183 53 254
35 57 156
69 75 161
118 207 14
54 58 61
198 61 207
195 164 189
156 216 147
115 153 106
76 126 5
45 226 169
98 142 125
72 74 144
48 178 68
229 50 133
0 170 37
108 50 229
21 92 248
18 172 67
82 91 45
110 76 55
204 170 68
99 55 170
50 31 181
66 223 211
205 127 47
36 75 237
71 229 122
76 80 43
28 36 91
22 171 92
163 160 248
211 216 196
133 18 177
223 179 27
112 168 12
115 243 18
226 11 113
92 106 223
106 76 121
118 33 112
92 167 65
207 94 236
236 201 34
37 246 255
208 251 191
25 211 92
32 159 18
66 62 244
30 166 210
246 163 122
157 228 99
35 89 85
120 24 217
127 26 39
36 201 206
111 109 17
51 171 220
251 211 75
179 174 203
195 214 42
185 24 131
111 10 31
68 247 82
47 51 104
95 199 39
103 35 18
28 18 129
134 207 132
200 39 184
89 197 95
190 32 148
185 120 224
254 220 245
21 56 49
54 56 126
42 246 177
151 95 42
239 242 118
147 37 217
30 187 134
108 42 222
39 52 228
233 154 44
48 10 217
163 209 212
190 205 3
253 110 126
7 66 30
177 114 194
216 140 39
143 157 194
203 41 198
146 233 91
18 179 207
93 88 215
110 17 239
73 115 76
117 60 12
140 118 255
61 137 7
142 182 162
14 109 84
248 120 116
90 181 24
209 172 173
245 121 230
228 250 100
14 57 64
2 196 97
31 187 237
63 42 192
154 58 119
149 165 73
230 195 145
80 16 58
92 154 196
46 85 130
154 217 79
38 203 10
207 140 89
9 70 150
141 82 109
32 59 207
15 45 12
234 136 234
201 156 92
19 219 218
110 11 96
24 91 200
185 191 90
163 129 44
44 180 19
74 108 53
144 223 62
188 34 71
146 127 231
33 167 251
139 104 3
38 200 189
128 35 210
5 164 206
183 239 107
224 194 57
31 195 194
191 33 59
185 71 240
92 160 240
255 111 107
114 194 13
16 203 63
199 121 235
44 186 226
247 61 227
227 189 130
139 113 108
191 83 2
198 142 68
64 0 161
239 235 119
168 190 49
183 24 70
239 147 114
140 77 181
163 213 119
158 119 254
230 69 4
78 214 215
156 239 133
235 192 173
92 28 137
182 129 244
156 251 54
209 86 223
26 90 202
164 168 221
125 248 215
85 37 132
226 124 243
123 137 55
91 95 236
63 122 51
123 50 56
212 140 166
240 19 48
63 227 94
34 200 220
221 193 189
98 59 190
159 140 35
80 136 175
158 120 225
102 248 169
75 2 32
113 223 69
203 163 138
243 80 10
73 228 221
114 207 136
168 247 41
47 217 14
248 60 221
76 173 5
96 181 193
141 245 138
188 105 85
107 252 192
214 148 122
176 166 79
172 233 210
99 170 4
36 203 134
221 154 204
149 136 219
116 48 155
157 199 106
153 39 105
49 139 21
134 187 17
48 71 138
176 3 226
203 69 127
254 146 173
82 37 59
232 239 116
3 232 109
220 165 176
164 152 188
47 230 162
8 112 113
164 130 50
186 1 178
139 122 44
6 182 168
62 218 56
254 39 186
64 253 0
106 233 4
213 50 223
206 69 220
117 163 254
119 42 90
1 114 154
214 230 194
70 192 225
40 41 212
229 143 204
249 224 69
109 3 133
192 176 70
59 59 59
31 168 125
142 64 20
236 9 174
156 56 254
88 136 103
230 20 97
69 24 65
191 37 84
232 203 82
9 190 212
253 191 195
213 106 133
192 245 60
166 113 101
135 26 127
166 152 246
43 77 86
152 0 248
17 94 205
202 191 200
181 74 255
126 6 171
221 208 60
206 93 187
113 5 111
124 228 204
166 65 243
160 243 39
223 160 11
191 130 252
54 47 85
186 187 111
150 65 5
185 113 221
120 58 233
70 133 32
238 85 224
84 132 200
254 85 219
23 44 234
13 170 196
115 211 160
203 240 15
199 196 85
197 227 4
90 121 82
215 173 234
156 135 50
97 72 154
106 188 252
170 87 229
120 211 166
43 56 116
104 103 114
106 20 239
9 129 43
161 105 73
133 129 61
255 224 25
104 224 190
12 138 66
18 85 149
130 169 117
78 116 134
211 47 176
241 49 235
125 254 122
186 213 237
176 16 231
206 188 182
80 69 136
1 214 83
62 29 10
105 131 33
49 115 74
242 81 20
74 178 51
211 17 125
77 190 241
214 13 134
21 109 165
165 70 174
104 188 57
154 65 138
20 196 242
80 95 74
102 71 110
38 94 203
125 158 110
87 171 14
243 31 112
120 27 150
165 129 89
239 77 52
68 131 147
58 12 16
64 191 228
136 53 180
245 164 86
105 46 154
8 162 37
134 245 11
26 213 94
29 140 207
246 106 78
87 85 115
227 204 66
167 123 242
209 238 45
136 35 146
145 7 135
253 195 162
80 109 36
226 35 150
98 4 224
64 42 218
139 142 116
212 236 104
173 147 93
122 43 78
203 246 17
245 129 6
83 140 30
198 217 251
212 106 158
116 242 132
122 227 136
187 74 213
162 152 136
11 24 166
187 16 40
102 121 119
57 77 83
15 141 109
151 207 101
42 161 39
16 254 193
48 208 53
234 31 242
161 166 62
157 63 102
104 15 217
180 97 253
27 169 187
3 82 166
175 119 184
26 247 248
215 56 186
51 23 5
193 188 66
90 71 50
181 198 130
227 64 140
233 140 194
89 79 122
209 220 138
196 228 135
175 51 246
243 230 138
223 141 181
190 252 157
105 43 83
112 163 120
96 154 169
230 85 17
194 33 153
152 222 62
2 32 231
172 163 45
133 138 87
69 117 79
133 8 48
66 66 193
104 61 25
38 184 65
223 3 3
200 210 180
20 252 53
66 239 227
134 207 38
166 140 13
0 216 235
78 220 246
127 14 12
151 230 78
173 57 118
96 73 196
114 86 136
123 140 185
210 255 41
196 61 154
37 9 222
38 185 62
145 170 218
140 219 117
152 35 62
192 160 30
178 252 48
169 236 160
185 180 68
88 58 233
178 254 192
46 149 110
106 38 71
79 214 96
185 92 1
80 13 158
191 180 94
252 109 239
97 99 144
75 83 37
230 115 147
12 77 58
234 129 101
236 177 5
43 130 207
244 222 161
195 54 89
210 181 24
246 41 121
21 219 189
55 99 52
217 248 100
132 142 32
119 87 96
58 90 28
202 117 35
218 196 19
185 87 8
226 167 2
27 87 109
53 187 230
174 3 244
190 24 151
78 8 134
16 46 226
63 168 216
202 140 55
29 168 140
37 125 89
237 153 167
169 146 98
135 113 36
96 127 233
55 107 151
209 147 90
177 5 120
143 202 153
62 187 10
235 176 222
187 127 249
55 163 209
111 181 225
155 42 32
163 214 0
194 46 119
187 9 149
157 140 83
108 246 94
239 15 93
209 205 96
121 227 210
208 171 169
135 221 94
248 104 111
183 206 114
34 142 138
135 75 92
49 221 170
79 139 20
212 127 105
206 141 130
225 63 187
60 15 70
74 77 191
57 143 76
198 247 114
100 207 108
206 88 83
42 17 79
67 72 44
38 27 230
230 90 103
167 4 38
41 171 224
201 69 20
218 26 9
161 139 159
104 187 119
194 168 136
44 85 86
38 132 134
39 12 215
162 35 48
193 104 5
75 162 216
69 29 230
253 203 152
153 73 111
173 20 225
172 255 138
239 106 252
243 171 161
233 171 242
253 39 58
248 45 20
123 206 229
51 167 132
14 189 227
29 6 150
139 45 20
230 43 25
121 154 193
75 173 165
203 134 135
183 212 227
134 143 131
194 206 252
44 243 146
73 14 91
140 230 136
144 179 211
20 29 149
1 211 154
191 22 168
226 8 93
20 139 19
186 200 96
118 177 157
96 68 77
115 8 136
18 57 249
131 147 140
10 27 105
212 106 228
28 230 38
99 229 99
177 96 19
125 30 130
99 104 172
62 56 17
22 140 234
124 93 240
56 11 39
217 152 82
242 182 123
4 231 118
237 181 0
149 112 151
232 7 185
109 250 93
199 89 90
0 156 249
187 16 9
154 196 27
226 248 120
248 66 193
206 155 79
247 253 206
167 44 240
62 13 155
175 84 26
14 159 27
192 40 162
135 150 245
141 154 67
221 45 15
200 173 31
162 143 215
100 79 158
67 35 56
238 198 105
2 115 180
68 152 194
144 57 208
110 26 176
130 13 84
150 45 211
58 252 196
27 178 226
72 81 94
130 154 123
136 188 31
14 54 159
93 116 42
248 156 173
7 158 161
3 1 113
208 235 144
119 184 92
33 54 8
115 56 115
218 2 246
220 255 237
190 56 63
254 38 232
189 131 17
140 231 186
122 180 49
205 147 135
76 1 17
228 70 190
80 23 107
145 100 186
219 32 130
232 38 104
138 59 77
188 171 88
188 216 190
176 147 53
65 218 218
148 226 169
51 93 137
251 38 95
225 204 205
219 189 211
106 151 7
173 101 164
134 23 169
126 150 147
95 144 124
55 173 90
110 229 179
151 152 239
244 107 15
131 15 13
153 142 86
254 44 41
170 234 131
84 185 86
7 129 234
196 75 109
42 141 210
4 233 153
224 51 175
228 63 74
148 97 252
131 8 150
58 238 118
123 153 143
254 31 58
207 32 76
163 240 204
22 77 80
108 114 91
203 111 47
200 223 136
82 240 223
55 7 166
85 94 115
32 93 103
49 31 139
44 44 139
106 85 134
87 185 190
234 9 171
1 42 46
73 234 135
134 210 167
175 134 69
243 89 11
52 127 180
213 84 148
76 101 125
143 66 100
91 49 190
201 135 126
171 43 191
60 129 154
9 190 179
230 24 43
179 70 132
94 203 89
231 143 211
215 195 75
88 185 245
137 26 255
139 30 79
100 24 40
192 1 48
102 122 10
127 74 147
113 207 32
184 14 167
224 44 92
244 221 250
80 216 179
43 120 55
158 179 35
179 163 13
12 254 23
103 253 164
19 123 84
41 29 253
161 28 184
104 58 110
126 238 230
177 247 229
213 123 203
95 219 103
142 151 152
254 179 135
74 108 68
37 152 91
199 111 167
98 200 143
33 58 53
171 148 25
116 146 244
158 46 91
40 104 218
251 185 178
26 107 248
184 143 116
75 215 4
12 36 103
160 98 103
53 125 181
214 185 154
23 218 6
35 193 213
203 197 17
119 169 219
52 106 123
177 121 89
41 103 13
147 41 8
240 25 79
236 116 231
179 253 117
224 227 35
86 140 84
98 149 71
39 53 71
44 73 191
108 59 121
139 63 138
158 189 26
182 59 76
11 61 9
55 142 87
78 132 129
43 59 10
193 22 2
190 218 186
137 214 122
19 63 171
246 58 115
199 36 65
193 39 194
53 251 247
216 113 135
200 30 254
115 47 233
255 251 78
134 94 231
197 179 253
3 182 89
234 203 226
54 128 74
93 28 115
211 121 43
41 229 106
188 73 87
237 76 8
123 188 191
211 143 80
154 113 107
13 198 139
170 10 131
74 246 187
97 143 138
249 135 90
80 214 6
225 88 157
151 62 102
195 153 150
166 171 86
158 99 255
51 59 176
187 75 156
117 175 142
135 87 241
5 148 139
59 164 154
78 114 105
236 170 239
202 240 236
78 12 184
198 68 230
71 163 192
105 133 12
242 141 27
146 123 86
73 218 169
224 146 138
237 129 180
115 32 53
129 201 78
74 54 18
228 13 13
25 65 238
92 162 93
168 160 130
73 213 193
190 106 211
194 128 18
239 218 179
240 136 103
96 28 241
193 179 145
43 92 0
199 75 171
28 69 30
165 74 235
51 20 57
159 29 185
11 95 76
168 83 37
58 121 233
59 144 73
245 90 213
113 8 165
241 110 213
192 32 230
168 205 221
187 107 154
102 173 48
254 228 73
136 176 217
227 100 164
181 187 128
29 39 174
93 203 38
54 69 27
185 192 141
133 16 212
52 105 48
156 6 137
132 239 193
2 198 40
156 213 139
86 93 38
34 235 49
215 163 97
5 5 75
145 187 205
238 12 56
228 240 46
253 19 34
246 171 166
193 93 242
123 18 113
34 166 225
146 173 111
217 10 163
141 82 7
26 203 154
43 173 148
125 156 206
79 61 76
156 62 150
173 103 140
209 21 243
28 140 46
185 136 40
37 139 67
21 208 80
20 137 61
171 27 17
239 174 53
170 128 71
36 253 129
250 167 143
110 150 250
95 110 79
4 60 60
95 121 82
92 65 26
238 148 85
247 168 94
222 7 142
211 228 172
38 6 195
2 94 61
129 49 148
80 151 27
82 151 240
59 108 162
45 149 39
204 52 155
22 254 203
63 139 113
201 52 207
5 183 174
14 44 152
64 218 219
213 187 231
139 53 67
62 215 117
26 147 93
46 76 235
90 136 169
28 145 180
245 149 137
96 255 247
51 189 69
83 108 40
235 81 9
31 146 227
44 231 13
250 110 106
252 47 63
229 150 225
119 28 157
188 170 29
11 51 209
157 228 234
143 199 202
18 179 143
126 244 234
58 205 124
96 201 108
57 144 101
233 191 78
218 168 208
93 56 239
76 100 63
39 240 212
95 195 30
184 192 93
119 16 18
90 218 124
182 42 24
20 116 195
105 164 14
25 119 207
249 34 119
214 164 107
153 15 103
133 18 11
180 76 4
194 112 141
177 110 175
112 239 75
9 76 46
238 76 92
221 98 139
46 203 81
115 9 39
151 175 15
126 40 146
112 136 172
108 138 109
2 5 167
130 146 85
157 91 143
163 191 108
249 56 210
57 234 203
184 192 58
145 228 103
179 20 92
106 116 245
218 65 92
250 134 170
19 189 147
196 232 190
22 211 137
140 44 59
35 47 33
114 123 11
75 124 150
140 237 67
156 13 245
194 119 23
51 9 90
176 239 116
249 119 100
113 74 57
186 37 163
240 150 94
221 171 99
58 194 90
83 122 82
223 8 25
60 254 50
43 85 202
112 20 203
233 198 209
197 71 205
26 87 248
146 128 183
220 17 62
156 33 83
147 209 88
106 103 8
132 52 56
242 69 37
121 83 92
181 41 166
70 2 247
47 231 14
162 174 36
14 56 61
222 6 243
122 159 44
129 187 138
139 229 19
154 227 141
164 146 16
110 124 82
51 124 65
80 174 188
150 180 33
215 86 141
236 243 167
251 209 110
165 93 200
129 69 30
192 24 141
119 25 108
163 129 63
195 188 94
32 83 150
78 182 79
219 215 42
193 48 13
92 2 50
78 22 233
9 47 124
84 217 163
13 140 86
68 254 85
119 142 254
213 208 19
119 153 89
9 25 146
140 120 27
253 67 17
47 88 154
225 211 37
246 98 25
170 143 8
114 43 47
46 69 159
220 13 171
191 101 2
105 25 27
195 166 49
208 86 168
108 141 199
12 185 159
10 245 190
221 142 235
78 228 121
4 151 243
46 255 216
132 130 52
120 232 247
111 42 231
253 76 179
34 33 103
18 221 93
201 20 47
206 197 167
51 225 130
182 61 202
30 181 44
147 220 92
156 18 199
231 213 4
94 97 185
70 35 138
136 246 103
215 162 44
98 22 46
181 92 198
228 66 251
15 76 0
213 96 196
20 157 109
242 146 97
49 63 115
78 69 36
21 4 17
207 0 85
247 195 85
151 16 31
80 12 143
228 133 92
53 42 95
182 245 109
210 68 129
13 204 10
241 220 219
37 143 229
209 20 55
153 152 209
29 216 157
241 127 246
35 233 173
162 37 246
175 8 49
14 252 49
10 132 91
32 237 118
166 190 242
246 40 56
130 225 203
45 192 178
7 78 207
54 237 43
139 201 118
112 209 120
47 62 94
73 153 213
61 249 156
206 209 253
73 32 129
149 81 89
178 52 164
91 51 69
191 109 163
109 211 17
65 102 21
5 56 24
98 117 161
108 74 69
130 107 55
34 0 162
43 248 100
70 171 218
145 227 25
96 174 53
11 182 70
141 64 78
147 169 40
180 187 16
196 198 37
61 212 118
195 165 47
191 133 2
31 19 246
240 168 40
178 177 152
149 3 238
182 103 117
176 58 180
158 254 106
213 250 128
84 145 56
87 245 102
164 95 57
131 240 108
80 203 130
150 16 157
169 9 164
252 108 105
175 216 255
233 225 190
162 168 232
249 209 115
14 168 157
233 165 90
123 183 23
156 207 209
219 106 245
11 195 88
116 126 218
255 8 223
148 190 252
78 198 76
159 160 217
209 52 180
85 17 252
58 129 125
214 115 44
35 203 200
14 55 12
42 165 79
135 248 222
168 82 143
107 153 217
239 224 155
233 190 111
0 217 119
141 160 158
153 143 26
217 64 53
122 170 21
232 92 165
90 148 27
236 56 232
180 104 87
44 55 54
143 9 51
141 184 143
243 113 119
253 176 251
182 22 155
47 213 105
213 44 143
149 239 157
253 180 125
94 66 159
165 223 223
240 226 20
38 163 124
88 38 139
118 206 126
162 170 216
239 165 111
47 250 62
130 177 68
241 33 73
171 53 193
231 220 5
17 255 239
247 95 178
93 108 57
172 131 238
196 172 187
17 61 67
6 215 147
204 223 103
62 6 111
240 144 35
250 25 105
249 5 205
0 228 230
53 168 234
38 106 173
14 176 105
116 82 98
112 111 70
242 47 12
184 76 4
168 221 124
204 137 8
152 241 67
136 246 74
205 53 48
248 136 106
93 114 143
89 28 128
169 29 151
153 49 106
226 62 206
124 77 110
72 10 77
125 160 11
133 53 150
251 41 7
155 238 3
101 192 221
189 209 219
226 220 222
54 251 42
171 78 62
188 251 164
236 87 207
228 101 36
67 201 29
25 78 156
153 221 203
19 190 252
0 60 161
214 169 1
200 105 141
140 139 174
49 34 57
216 18 199
138 36 78
73 98 113
216 68 100
117 13 152
95 108 222
154 79 179
102 69 142
72 55 135
73 161 166
141 185 64
135 153 24
195 27 150
164 252 218
123 149 2
76 198 33
110 242 242
175 13 46
151 185 223
70 168 231
222 103 88
225 178 196
25 219 238
214 137 58
108 23 120
153 210 203
46 221 22
218 40 126
70 183 30
229 120 108
31 245 54
216 199 48
9 213 182
117 237 209
207 80 233
221 178 102
110 116 153
70 174 230
196 202 73
90 5 95
4 130 69
182 87 85
52 91 182
116 215 192
213 122 127
77 192 42
193 129 207
139 142 36
29 128 47
213 86 198
87 150 42
29 142 73
176 166 187
234 14 76
33 106 171
97 90 52
115 44 227
198 54 223
39 35 181
52 209 247
241 1 132
132 219 208
173 160 177
174 245 244
182 67 80
45 237 18
43 156 236
131 81 193
170 185 29
85 56 184
9 42 89
219 17 237
84 90 170
216 51 245
213 221 225
5 215 46
94 59 192
79 175 63
24 94 8
234 233 109
146 104 15
177 128 54
190 248 6
29 76 49
80 179 46
65 6 116
106 65 252
83 86 189
189 52 20
252 180 200
193 21 17
246 242 159
90 38 172
36 83 190
93 59 209
123 130 202
0 120 201
89 188 142
147 124 237
4 182 223
203 113 157
62 247 128
15 140 115
136 242 32
189 192 216
62 142 36
142 210 212
156 174 45
111 151 238
223 113 82
69 145 32
36 84 217
253 208 54
172 58 105
240 114 162
114 86 51
198 212 245
136 159 81
239 236 82
159 117 236
192 121 119
73 105 251
171 81 223
15 113 172
209 27 82
25 109 71
64 254 36
109 109 96
106 128 147
179 167 31
243 147 222
43 52 209
188 17 5
116 56 249
36 89 163
34 54 186
76 2 189
142 13 137
250 62 248
196 208 119
57 174 239
151 131 243
111 144 240
226 153 44
11 183 10
102 104 2
161 72 146
85 126 83
219 245 112
51 211 253
65 91 2
7 223 16
103 123 144
187 207 37
82 163 0
82 91 224
93 251 236
95 222 66
212 162 86
187 76 38
85 81 154
129 5 25
190 191 160
101 31 152
104 177 8
44 49 69
72 135 166
72 50 41
14 103 194
200 184 13
10 18 57
75 240 120
154 91 171
124 27 9
118 154 210
162 214 45
233 62 219
118 145 195
79 150 27
118 85 56
217 87 68
34 106 54
11 178 75
43 241 11
162 164 130
209 93 225
166 95 240
130 9 184
146 50 110
115 191 68
106 2 81
26 218 99
214 34 19
201 130 174
213 131 253
240 2 48
228 90 66
206 200 9
36 147 202
209 68 53
244 145 218
152 234 127
101 127 148
29 235 161
211 218 163
138 209 83
45 239 61
47 118 118
21 113 224
191 32 11
44 165 74
86 34 6
13 191 165
209 191 251
204 236 68
195 158 255
215 203 138
27 204 98
54 228 58
119 128 117
85 20 94
228 45 131
153 53 208
42 150 198
102 6 115
232 63 42
70 152 207
71 128 150
83 187 235
77 142 28
125 167 151
42 146 57
95 145 1
103 115 179
141 131 183
138 54 186
78 89 171
226 204 240
230 252 9
13 134 242
216 58 208
227 4 195
16 55 188
137 207 124
141 3 149
137 146 250
209 194 184
76 149 234
65 116 132
189 45 54
159 36 13
22 209 55
140 199 244
196 219 34
175 59 111
92 228 47
64 96 180
56 83 43
177 249 169
176 220 172
79 186 100
154 135 12
34 236 212
137 1 178
35 217 162
58 88 203
20 97 167
112 33 137
218 202 83
90 134 142
129 255 210
104 113 209
25 35 133
105 68 68
210 155 16
201 215 154
18 241 213
83 111 68
207 3 205
254 120 167
115 80 86
98 80 37
227 126 0
26 244 5
184 182 242
150 41 217
208 161 16
235 246 156
149 114 17
208 112 7
35 116 0
77 187 149
117 133 151
101 207 105
84 92 79
70 150 96
181 57 35
245 33 239
111 92 18
169 29 77
225 81 81
25 15 36
130 230 97
176 41 202
177 155 152
191 229 186
74 142 149
170 128 120
198 43 136
54 5 216
123 131 52
128 63 116
13 98 96
134 139 216
144 158 189
215 11 213
156 50 33
3 149 99
214 244 1
253 172 19
80 250 137
222 46 21
25 250 152
236 235 154
15 225 47
46 126 219
236 27 133
125 95 57
61 60 227
233 94 68
238 156 120
94 37 217
144 112 139
117 102 43
35 114 127
45 16 171
76 122 127
158 172 184
28 25 178
230 251 52
228 30 185
203 162 62
174 77 101
93 32 34
48 241 222
180 164 26
187 180 145
88 160 23
20 5 155
10 35 237
13 29 251
218 14 237
247 71 140
40 1 164
64 183 211
254 72 249
197 114 157
224 197 145
64 98 131
9 139 215
143 201 22
23 136 158
75 92 213
50 212 169
216 180 200
133 101 88
30 157 235
39 179 154
133 251 9
66 205 234
189 216 251
77 112 174
27 14 218
32 203 150
40 79 208
155 14 196
124 135 217
30 224 157
50 123 13
52 79 201
4 254 187
92 215 255
165 73 247
118 82 22
230 156 26
175 207 42
35 245 180
161 126 206
227 62 214
42 155 254
35 164 9
156 22 66
131 177 170
225 46 129
128 170 192
31 208 94
223 180 77
234 168 81
169 133 107
141 25 39
60 169 215
108 84 18
176 163 206
48 218 111
244 151 42
213 92 248
35 250 10
212 70 97
208 53 121
105 34 103
121 181 10
73 16 158
65 203 127
55 38 45
229 14 141
176 145 170
55 33 95
214 208 254
197 239 75
252 88 144
136 247 252
145 20 71
212 172 134
177 206 245
57 113 154
127 227 35
245 174 12
44 57 18
61 133 75
9 150 159
60 142 154
129 56 64
172 160 249
57 247 137
77 68 237
28 4 83
108 29 236
40 244 153
154 255 228
156 128 73
69 208 157
207 138 211
170 175 129
216 207 59
159 47 163
189 209 54
10 253 80
52 164 92
122 62 233
244 21 115
44 197 33
182 115 75
64 16 182
185 166 8
190 40 50
122 171 16
71 64 108
57 82 48
103 135 42
124 160 31
91 88 4
138 93 167
164 107 60
177 17 247
238 69 77
180 213 40
55 201 209
20 34 233
190 83 167
50 106 68
207 31 165
49 228 191
79 238 61
86 200 106
190 191 205
20 203 190
55 138 173
85 128 193
45 96 186
218 225 181
242 196 28
125 139 183
72 44 60
250 189 79
3 240 136
17 160 185
85 163 250
117 21 248
141 70 235
15 76 163
194 37 199
37 187 182
111 210 204
68 170 130
73 248 114
233 69 197
84 102 104
21 182 210
168 0 39
164 137 87
69 227 194
254 249 129
42 168 147
245 176 230
165 71 122
117 68 57
7 82 27
88 55 56
162 216 52
170 217 230
136 232 47
10 159 238
30 55 28
230 22 244
212 142 77
79 202 153
240 155 93
14 13 193
239 233 107
170 192 77
28 242 40
11 98 72
10 30 7
156 148 225
69 60 14
15 229 211
90 131 237
74 232 8
42 108 193
219 80 25
166 108 121
141 65 154
96 56 18
142 86 199
153 188 167
236 131 80
182 159 207
12 245 104
250 105 25
239 15 7
46 188 210
203 175 71
103 205 173
213 139 160
91 245 74
124 5 146
255 122 51
233 235 99
152 97 171
182 255 207
21 77 150
163 71 3
27 142 175
168 199 242
238 160 248
204 54 145
180 6 150
225 96 223
244 8 48
200 122 184
204 234 36
130 108 224
5 35 170
147 140 43
83 106 111
190 137 75
173 61 11
28 33 41
254 117 171
142 42 196
0 111 239
160 116 59
225 97 110
153 148 159
254 128 119
35 118 90
73 170 88
180 28 58
82 208 127
18 218 160
71 174 14
223 247 226
19 45 48
175 234 206
87 40 145
185 184 180
75 46 241
91 111 57
6 156 145
145 182 221
212 78 99
244 216 90
220 137 42
48 57 39
116 115 255
47 6 62
132 75 14
182 39 217
169 159 208
43 6 195
78 1 138
186 10 201
84 107 13
200 46 82
250 194 108
207 211 118
98 248 227
7 117 14
174 212 167
198 176 122
33 49 98
246 49 157
90 106 74
243 127 148
168 30 208
109 19 21
192 156 182
174 214 129
137 183 29
182 4 163
114 174 249
47 3 22
200 234 168
76 234 251
88 84 43
116 147 218
177 168 145
218 100 157
79 237 86
136 151 231
71 243 128
222 141 202
97 72 225
136 188 112
220 19 144
235 130 151
55 106 208
57 178 200
156 239 199
47 49 82
160 103 108
49 171 143
130 247 144
154 133 181
151 132 121
144 150 8
137 248 123
62 181 170
31 245 204
194 127 74
236 129 8
238 23 232
119 14 48
82 145 229
125 69 217
3 5 83
181 133 197
109 250 255
98 220 74
239 124 252
54 63 24
85 83 54
9 146 132
220 2 173
196 23 180
252 211 82
28 229 13
80 45 112
27 129 39
187 119 239
86 22 252
211 59 109
87 139 90
161 136 75
166 213 234
137 148 44
189 202 53
72 248 176
87 42 230
55 153 187
163 92 248
255 68 255
67 154 113
155 148 231
151 43 49
160 219 111
127 14 38
69 179 57
27 216 156
216 195 136
10 31 107
34 0 140
49 10 165
186 248 77
7 144 176
29 41 131
220 210 96
37 224 149
131 74 186
215 139 59
165 239 42
209 224 215
192 166 195
119 238 4
254 62 203
52 28 61
65 55 219
234 9 61
15 88 154
34 224 255
89 237 37
245 158 82
229 222 237
26 244 47
9 165 64
240 92 93
90 142 141
66 141 114
92 211 215
7 8 213
83 198 174
64 59 15
46 85 231
145 164 156
189 212 213
4 41 206
230 4 78
201 254 141
250 82 239
57 118 26
97 195 199
183 25 237
226 233 218
203 76 1
68 154 232
108 247 151
245 253 131
47 210 75
184 18 29
229 9 137
96 237 206
238 10 12
12 83 37
211 181 101
247 139 140
228 116 38
21 211 186
186 201 94
149 214 53
205 145 179
215 184 229
207 46 131
108 103 123
213 41 208
186 1 82
101 41 112
31 57 21
97 215 181
43 89 190
240 135 126
110 172 177
183 114 94
135 175 106
158 106 218
157 127 54
41 214 4
32 139 68
73 63 45
63 231 207
199 97 196
236 49 94
123 194 159
32 250 2
14 155 202
100 22 79
48 30 139
207 252 19
55 79 131
219 3 80
222 111 190
37 108 44
228 186 87
139 140 236
30 72 127
53 161 100
192 161 22
59 246 182
160 218 11
170 245 160
98 168 225
75 234 214
159 171 33
71 26 254
160 139 157
151 90 246
11 212 95
131 47 60
156 235 157
11 73 105
234 132 239
185 246 254
105 65 92
209 140 192
149 112 16
126 183 185
98 7 104
245 154 32
242 47 169
25 238 158
234 208 174
86 177 94
32 78 47
170 42 15
197 42 2
82 133 187
150 90 140
208 35 87
144 0 215
112 40 37
147 76 225
51 74 235
48 99 109
182 26 37
223 128 170
38 68 222
130 185 197
244 210 175
34 127 190
116 208 108
127 78 246
130 6 124
152 162 230
211 163 84
224 240 157
134 212 128
85 208 55
55 18 132
115 48 99
77 237 205
244 58 31
106 55 245
0 82 214
40 90 82
140 54 197
21 21 68
157 94 30
87 205 114
196 126 212
111 86 215
86 83 209
224 148 182
144 81 253
217 119 204
122 98 246
36 126 47
187 185 86
112 27 44
77 236 179
29 222 238
222 6 12
136 149 68
8 187 225
107 131 230
85 158 140
221 186 17
72 100 201
132 205 254
20 70 179
164 18 41
249 144 99
191 44 93
117 151 133
97 168 20
6 113 19
41 253 235
42 157 215
20 187 99
175 67 36
106 96 156
98 103 241
131 45 91
225 103 107
23 132 122
147 69 211
112 143 189
168 25 22
183 57 221
58 77 116
213 50 124
196 10 194
108 29 158
21 215 72
94 54 30
238 205 156
43 5 53
46 12 126
109 18 158
57 22 222
176 49 20
64 42 149
82 39 21
8 194 185
146 117 121
3 248 142
157 5 248
252 194 88
211 62 113
136 188 207
43 138 133
212 201 204
105 238 22
32 220 105
116 51 207
144 90 207
63 125 28
156 238 217
59 95 34
241 60 95
170 111 139
40 89 160
145 28 141
182 210 12
74 248 198
63 51 9
20 183 0
96 46 184
168 185 115
219 151 245
208 1 175
126 46 89
10 179 121
59 19 247
166 0 219
109 97 77
76 117 46
162 210 33
141 219 50
68 61 119
16 209 101
182 128 83
21 120 255
177 132 12
215 32 140
213 247 10
188 112 224
205 79 82
62 112 53
221 168 253
7 22 239
153 226 20
68 209 69
239 90 24
170 0 170
113 103 166
135 108 87
224 151 50
243 88 48
191 190 91
189 122 43
89 119 216
178 86 143
223 178 195
158 53 245
20 66 82
240 3 210
228 253 115
252 101 10
133 187 218
168 237 97
187 64 172
94 119 146
207 95 102
140 205 88
114 229 210
97 111 216
102 103 156
56 221 77
105 208 83
97 240 162
160 83 109
1 136 116
202 69 117
116 216 21
142 119 214
241 0 26
186 212 105
161 212 201
110 8 183
12 82 138
139 186 182
3 74 85
36 95 119
162 185 240
229 68 227
202 18 187
48 179 51
179 91 120
249 248 32
106 94 111
50 136 153
66 142 70
255 43 52
246 147 173
218 19 248
222 250 2
114 113 48
187 92 86
58 175 15
55 5 59
25 241 187
226 83 67
41 134 248
34 97 25
99 220 111
71 86 222
200 148 12
232 57 153
190 206 19
106 218 175
247 92 216
254 33 157
140 67 216
2 201 104
153 170 171
76 227 142
202 227 99
27 188 38
123 46 48
36 224 12
244 42 133
72 243 10
135 87 63
221 208 134
31 64 123
159 220 104
12 218 107
250 217 131
245 228 96
206 144 115
180 227 130
65 222 110
167 184 214
67 11 242
2 23 69
191 233 113
188 3 192
77 16 25
52 36 138
32 99 4
67 124 209
189 171 19
245 88 40
160 225 72
54 117 139
49 72 97
18 21 163
187 208 168
8 23 0
247 51 149
82 64 25
248 56 188
217 127 7
170 213 131
63 244 244
70 185 69
43 206 220
15 161 153
25 177 221
1 110 128
215 216 175
176 212 91
188 98 115
153 74 33
80 90 247
222 65 99
242 39 119
105 34 187
187 171 141
86 77 245
69 155 74
127 147 93
76 156 180
186 217 214
224 7 77
100 141 35
172 207 80
136 69 114
81 197 55
57 110 60
75 94 28
40 27 132
6 247 139
243 189 215
79 244 220
184 129 178
187 169 125
59 183 231
88 38 191
39 10 38
212 149 39
42 230 74
77 11 221
155 72 211
167 175 26
169 212 125
58 232 38
27 162 41
245 146 126
201 158 37
74 100 135
34 108 188
113 14 48
116 226 151
112 84 39
145 210 40
15 27 200
89 131 39
56 39 153
192 65 141
209 140 66
220 250 153
6 98 30
36 14 133
118 62 177
99 255 203
195 160 121
200 148 172
13 252 176
103 180 142
74 31 123
250 241 209
169 141 160
156 47 114
208 15 185
2 103 182
228 8 175
243 239 161
57 107 149
100 102 25
164 133 177
158 215 95
90 119 35
227 210 31
98 31 229
200 170 214
192 80 202
144 184 240
10 231 97
239 95 164
63 167 215
16 101 52
220 215 107
60 59 226
1 38 192
133 159 14
192 248 253
14 225 182
162 121 170
244 157 121
20 148 222
198 52 179
168 189 33
202 99 194
225 146 29
122 42 201
138 61 129
169 242 210
112 47 3
125 147 29
170 190 157
195 253 74
61 124 27
147 77 145
243 144 37
98 59 130
226 158 110
184 110 19
8 160 175
52 28 54
202 178 209
219 219 127
170 121 11
22 74 4
241 104 178
170 52 51
189 29 43
125 219 185
100 112 218
155 187 201
190 16 50
15 14 63
73 214 248
26 4 7
226 200 66
116 104 211
240 144 166
17 219 3
174 229 238
43 79 53
218 129 21
99 109 214
70 218 43
25 147 159
14 117 207
39 1 20
103 218 75
68 196 6
3 223 164
113 183 56
201 138 96
168 225 70
182 228 225
56 106 245
69 145 87
129 249 106
78 192 235
118 182 156
92 236 134
185 222 36
213 26 68
10 249 119
247 84 58
59 35 78
38 168 114
94 245 221
255 23 177
63 216 33
123 67 83
213 110 161
170 88 15
150 134 185
173 35 82
239 75 12
141 225 85
234 156 47
43 13 84
132 251 225
49 101 36
22 191 2
230 241 73
211 214 187
181 81 11
188 109 64
21 235 42
36 205 192
77 19 193
114 9 34
193 236 124
219 88 63
6 189 162
76 215 0
8 66 245
195 7 113
202 76 56
120 104 77
10 237 66
44 70 206
193 188 144
136 134 210
221 126 200
112 41 42
53 150 119
128 187 53
122 197 74
222 144 148
45 79 155
29 244 179
157 103 205
75 193 60
65 117 92
32 142 152
0 14 187
124 189 64
189 47 43
218 169 40
60 85 233
87 156 59
132 81 176
246 224 239
212 51 22
44 45 197
223 161 90
251 168 65
171 150 97
123 203 149
7 87 77
48 179 52
120 17 138
165 138 21
14 238 118
170 62 29
182 40 35
171 204 73
0 100 6
251 46 205
194 72 153
61 180 217
224 46 132
92 132 235
211 14 169
181 233 146
27 247 125
33 74 104
38 164 176
27 17 50
42 222 104
38 23 86
43 223 135
52 77 169
92 217 128
104 8 255
93 20 225
169 88 170
148 35 5
138 255 123
46 58 169
25 12 193
136 130 136
170 250 179
120 51 46
230 172 74
165 200 102
56 68 120
97 10 5
40 195 87
98 35 130
66 101 177
80 243 152
174 126 13
8 168 114
139 147 204
171 138 55
171 173 20
114 253 130
36 45 209
160 162 169
15 254 67
90 129 86
186 230 239
194 121 236
7 198 227
162 170 106
31 174 244
88 58 156
252 168 38
199 169 58
4 139 59
245 193 218
84 85 106
100 27 99
80 202 229
124 11 197
216 149 53
33 135 78
214 118 166
185 242 128
15 197 80
109 79 6
32 163 104
112 245 241
1 239 122
136 24 118
236 207 133
190 90 180
148 241 143
235 190 87
33 76 99
215 152 217
213 41 171
224 104 86
84 0 218
154 120 12
101 178 185
149 125 229
145 227 128
6 40 213
21 95 75
220 24 146
135 137 200
49 106 16
39 11 207
11 15 95
141 239 255
34 153 7
62 190 21
36 37 96
84 34 82
155 93 96
143 135 216
201 148 253
7 4 156
61 161 241
114 220 98
220 235 240
226 97 218
4 30 4
63 111 121
165 23 49
14 198 250
225 170 1
74 250 115
213 136 195
253 185 67
160 215 44
100 170 161
124 117 142
35 119 39
213 163 183
177 166 76
224 158 246
238 21 148
161 229 164
190 70 92
202 96 166
252 139 157
5 189 220
203 214 190
100 98 56
82 23 61
100 54 150
166 164 249
47 137 182
191 149 45
63 75 216
240 97 150
197 43 23
247 238 113
198 47 166
156 165 183
83 53 209
56 183 82
13 86 179
94 190 93
246 98 7
103 77 136
20 227 68
157 225 122
214 110 86
143 211 80
49 194 231
234 19 192
149 0 181
35 109 15
109 221 182
39 39 130
1 206 147
203 111 18
106 186 179
52 131 242
207 14 120
166 92 155
38 151 242
30 111 156
189 225 246
187 238 165
245 179 32
105 138 107
255 132 71
50 195 240
78 69 211
39 33 215
10 253 99
191 241 97
144 146 183
93 174 36
108 225 200
72 41 87
105 136 164
138 252 160
9 142 108
37 178 146
140 142 22
97 238 125
102 88 112
166 205 25
50 199 176
128 84 2
163 221 193
17 178 20
181 141 81
52 234 228
61 11 57
172 97 174
74 195 157
100 183 167
228 242 128
171 165 46
29 95 211
169 171 113
10 125 175
173 254 146
54 231 83
122 239 154
220 104 245
195 158 175
54 111 185
254 138 112
163 104 3
93 105 69
100 57 134
70 94 37
40 62 80
186 124 66
116 12 193
192 55 68
203 76 225
242 185 132
5 188 34
108 80 225
41 162 228
70 125 109
60 210 99
19 100 119
63 148 95
135 161 245
74 117 127
166 146 150
77 167 184
210 164 61
139 222 11
122 18 42
246 159 143
183 69 137
187 126 51
69 187 224
123 224 170
183 76 20
32 36 139
137 92 168
70 111 170
85 7 43
167 233 126
96 209 250
220 139 244
179 120 245
230 211 3
247 56 95
14 240 116
136 82 253
47 32 165
35 57 171
243 41 62
243 24 229
24 80 221
201 235 65
219 143 242
134 32 212
230 165 127
89 40 10
49 103 224
214 188 88
217 97 205
137 205 126
171 87 52
6 15 137
155 28 28
214 205 205
94 105 161
175 85 37
194 206 180
36 136 128
126 210 194
143 207 62
184 107 96
184 178 28
235 12 37
180 232 45
1 40 4
52 173 26
149 163 248
74 191 114
197 56 82
36 169 123
172 142 180
193 24 149
109 105 224
11 121 128
101 75 117
251 81 82
183 196 20
236 87 143
53 179 187
217 178 92
130 13 220
110 194 122
218 33 12
4 163 97
250 120 32
112 99 194
174 54 23
87 170 218
45 54 224
163 236 117
36 134 190
7 95 58
46 107 174
33 46 161
222 45 123
249 177 15
12 34 199
112 188 31
176 174 71
79 181 7
236 214 81
119 66 159
126 213 5
219 168 153
252 228 111
199 172 107
72 150 202
242 178 14
8 249 133
246 16 194
47 232 5
13 25 245
122 252 210
236 67 140
9 104 249
38 191 231
162 72 137
173 67 26
213 217 121
232 230 49
135 57 94
50 152 200
223 166 181
65 30 178
193 242 13
80 184 27
166 14 4
98 30 177
74 92 73
159 198 242
47 26 45
192 111 73
252 127 1
207 229 113
107 240 190
116 25 122
43 164 137
71 216 54
244 245 131
165 227 11
33 221 169
187 12 38
199 61 55
138 70 139
161 99 246
233 244 116
5 182 127
11 233 170
201 171 251
214 109 148
147 186 209
107 225 85
114 179 66
34 220 114
202 80 34
31 234 223
57 77 152
248 53 174
215 208 34
158 65 109
195 153 197
251 94 123
52 209 26
68 51 12
85 49 195
160 131 194
243 228 56
250 90 187
20 177 162
231 141 250
157 252 32
220 171 22
10 125 67
192 125 228
14 229 107
2 246 20
222 56 216
238 191 242
142 177 147
26 90 55
141 132 216
154 54 213
30 108 65
93 200 218
0 38 85
63 17 213
89 167 139
14 41 252
156 146 166
129 105 195
57 241 168
42 135 165
50 97 69
134 66 104
159 127 209
226 81 122
137 35 213
106 247 184
39 32 99
173 121 49
140 119 51
21 60 150
151 48 103
106 135 137
175 98 159
139 134 46
19 90 7
85 11 56
75 50 64
39 182 50
26 105 63
142 252 152
83 1 74
248 21 25
191 114 4
187 207 194
184 241 57
200 180 246
45 198 75
177 78 92
248 187 192
85 113 236
20 220 10
18 238 60
177 79 109
60 141 148
35 96 173
235 171 86
126 25 73
190 103 91
212 77 243
67 209 0
150 16 145
202 199 158
8 42 241
185 182 249
7 221 108
142 135 47
214 103 8
230 85 41
212 4 249
73 152 209
103 132 164
76 30 103
9 137 248
199 177 98
168 206 13
92 237 140
116 99 195
242 74 32
216 172 174
152 186 123
93 21 137
38 91 162
23 26 17
144 118 126
81 204 184
74 237 10
94 179 20
80 65 30
13 37 134
106 140 110
136 44 244
87 202 8
84 93 131
151 17 142
164 240 246
174 98 182
24 214 178
80 123 99
183 178 127
210 188 129
155 61 211
133 45 222
83 50 155
93 80 211
137 214 18
173 44 182
141 73 28
142 46 240
233 240 40
142 159 107
30 237 60
219 231 51
97 112 208
102 244 194
155 97 97
35 86 57
57 114 77
118 203 85
40 145 80
235 120 156
175 135 22
135 54 160
98 56 125
69 224 3
6 101 50
59 177 242
11 86 246
77 22 149
84 245 3
70 37 22
192 138 40
113 6 118
10 246 112
189 61 184
178 230 156
178 47 86
113 154 243
213 124 225
231 211 117
80 57 157
124 243 60
245 75 49
237 184 26
92 44 153
101 120 174
235 62 58
113 186 67
140 215 21
163 223 198
176 232 169
63 26 33
193 164 112
214 226 195
153 190 75
152 74 170
8 86 0
117 230 249
130 182 5
209 109 191
232 94 214
214 106 25
152 50 178
132 67 97
9 31 169
202 115 186
127 174 72
29 109 7
199 42 194
17 48 30
91 198 251
24 86 75
149 230 153
144 239 46
219 97 250
201 215 115
25 16 83
202 21 85
157 114 230
20 66 23
29 93 17
155 96 81
40 1 236
83 27 71
116 153 110
165 18 75
34 94 152
230 126 35
221 33 78
19 44 59
56 47 7
195 218 65
145 216 1
88 150 96
107 73 17
30 56 139
108 50 206
90 205 188
158 50 246
151 234 94
190 165 219
60 149 137
110 91 158
132 195 114
23 197 52
114 226 123
40 185 179
188 156 27
218 137 169
102 123 219
135 10 60
252 165 236
243 6 42
181 112 122
95 135 192
23 243 64
93 70 129
226 23 210
108 217 4
85 169 235
101 5 3
175 221 167
26 60 90
222 163 87
19 202 16
30 231 140
30 226 203
101 28 95
194 0 165
138 254 223
217 234 156
129 232 54
194 120 43
216 37 170
65 18 67
4 19 96
126 237 220
91 247 97
157 188 84
36 157 142
184 211 225
114 0 142
208 250 47
147 8 182
87 216 105
99 111 193
129 96 67
118 206 76
223 29 43
139 142 145
190 95 178
36 136 201
244 71 126
150 209 87
5 37 30
134 187 48
228 200 63
123 133 137
41 70 149
94 119 204
140 53 1
3 78 145
45 209 1
178 80 178
141 14 159
168 236 84
165 105 37
144 31 220
228 136 27
240 55 184
12 140 117
145 24 67
75 149 149
151 82 185
108 33 196
44 229 161
233 222 86
170 35 178
100 195 155
214 175 201
237 46 173
200 34 137
134 111 32
139 194 125
199 200 184
34 151 218
39 83 73
190 194 72
135 104 14
80 117 57
122 248 210
68 101 17
32 15 150
21 91 153
255 0 115
3 165 231
174 28 103
198 25 217
172 43 194
156 196 166
181 63 33
10 125 117
250 51 115
99 16 208
95 148 194
196 220 77
95 165 56
26 230 64
108 3 233
204 128 243
223 208 235
56 255 218
161 0 96
12 204 44
145 130 70
143 40 166
130 226 99
156 123 139
66 255 124
164 200 188
34 58 116
208 241 253
226 206 40
19 125 108
99 71 208
239 143 223
11 32 16
183 228 254
74 172 255
189 148 188
85 223 98
69 104 46
94 85 13
58 163 215
190 165 0
197 2 166
26 8 129
102 185 155
144 170 236
166 156 142
68 196 185
168 62 160
106 254 27
89 199 58
52 80 119
157 116 155
84 17 208
186 235 10
236 102 235
67 21 121
249 139 222
105 184 172
101 148 20
229 158 77
29 160 173
197 248 90
165 157 179
227 109 175
90 255 53
11 101 43
85 246 34
254 18 85
166 250 205
132 140 124
141 61 238
193 25 129
130 54 232
244 160 219
81 249 145
94 85 122
109 139 35
23 144 27
149 15 223
223 209 171
149 183 180
3 186 254
213 104 107
195 96 0
104 178 211
213 231 31
205 240 205
120 224 118
94 19 31
91 162 7
95 85 253
250 189 98
146 59 87
79 120 247
191 101 120
67 184 125
30 224 254
62 77 161
112 28 25
89 124 35
150 205 126
29 148 0
54 170 180
227 135 237
82 190 10
63 55 49
212 28 167
199 41 251
106 226 178
45 67 38
12 71 157
66 123 132
75 6 36
54 210 106
85 38 13
14 191 55
239 109 254
5 183 179
6 14 161
20 86 177
60 8 56
44 212 137
216 32 41
17 0 51
0 178 105
188 128 14
202 0 135
166 221 155
58 148 26
167 159 4
204 215 207
163 129 60
219 18 176
30 185 125
105 218 62
187 22 201
166 99 187
42 149 51
173 184 26
52 179 149
233 117 115
140 215 115
123 23 2
67 254 54
216 210 0
173 93 89
35 137 202
252 200 111
102 85 88
2 84 188
192 139 251
21 187 41
160 129 16
69 27 172
238 188 238
118 31 124
176 108 122
118 20 68
224 148 105
133 233 120
149 158 251
248 71 107
168 242 148
161 252 221
100 23 78
164 83 66
125 140 4
50 235 83
239 126 156
223 46 186
183 230 153
147 99 81
226 243 52
36 198 22
37 245 104
243 240 238
7 183 221
160 13 222
165 43 175
108 245 75
204 110 192
17 198 181
134 195 8
140 183 53
105 153 95
3 165 31
230 246 97
149 74 87
73 247 13
101 146 242
49 83 109
234 161 142
18 152 20
87 5 11
213 197 245
242 95 17
195 152 247
10 140 9
38 96 113
89 186 146
72 187 161
170 230 164
184 58 17
29 14 134
248 4 186
89 69 161
66 188 177
146 251 178
73 232 255
214 93 10
207 210 172
79 177 50
100 212 173
40 134 225
41 139 178
77 119 85
64 18 0
173 150 57
147 26 27
161 64 62
110 61 122
122 11 92
93 177 74
74 254 64
189 234 125
232 242 137
93 243 118
224 113 50
237 115 215
217 116 103
36 82 62
202 80 153
7 132 236
173 195 237
140 183 170
171 196 142
44 13 163
84 31 73
7 167 42
231 235 55
253 199 173
157 175 176
16 76 71
71 242 38
215 64 64
167 250 55
93 195 238
171 136 150
43 204 14
34 37 132
114 82 51
201 51 25
22 193 91
91 240 89
3 66 248
63 35 154
114 190 209
80 98 0
241 72 113
94 64 242
141 223 180
19 129 222
57 161 112
125 28 57
114 250 168
65 43 140
50 84 202
76 84 231
249 153 255
131 109 239
165 70 158
56 212 146
129 91 113
217 153 182
157 20 125
159 82 34
129 100 9
216 130 62
33 21 168
118 38 44
219 75 2
96 231 4
173 247 6
13 99 130
77 65 105
120 127 40
172 70 42
92 226 171
60 21 61
12 237 21
167 182 187
70 158 17
22 198 162
172 212 93
254 58 73
104 136 107
131 85 0
129 53 99
114 214 67
42 207 49
88 97 1
140 86 56
76 156 51
51 55 243
192 238 183
200 181 141
191 93 71
250 90 188
8 194 193
8 173 58
65 78 152
58 74 93
32 112 96
98 121 226
227 233 53
103 14 144
216 45 172
251 115 219
145 62 223
244 80 251
80 181 202
3 234 130
17 200 161
116 228 44
44 67 170
141 165 169
171 21 52
78 184 10
76 66 238
101 138 51
240 216 231
203 193 36
218 7 192
27 164 109
31 212 152
44 201 224
52 41 140
2 250 193
220 219 178
169 243 50
228 135 16
132 197 139
131 184 45
88 106 51
215 224 186
184 65 219
67 213 162
188 47 31
200 11 18
82 179 201
196 213 180
163 162 76
158 98 243
181 184 104
167 156 21
3 231 60
203 112 49
23 120 212
181 128 83
65 152 33
84 60 219
154 234 211
131 216 95
63 9 252
35 190 50
208 123 211
73 219 177
69 92 119
175 18 35
197 48 223
249 67 161
208 19 33
89 40 101
234 250 88
216 9 134
133 17 100
73 180 119
166 188 19
201 113 52
143 252 234
149 22 126
14 183 87
66 190 129
37 69 26
246 253 205
25 180 48
176 54 158
114 101 199
32 218 203
190 251 90
62 183 128
102 214 91
161 163 155
150 230 206
48 43 236
160 97 19
90 2 250
182 20 74
66 244 6
26 26 146
27 22 25
99 228 4
140 125 254
154 202 250
192 43 252
194 103 38
54 58 143
235 237 183
74 99 122
91 204 183
22 206 146
190 60 75
152 59 168
56 27 17
11 170 160
145 33 77
228 48 188
168 215 118
129 239 83
226 96 7
65 72 116
113 18 157
122 54 218
216 212 66
189 215 243
107 200 17
170 245 198
232 248 159
244 129 41
97 184 87
31 234 227
143 129 64
30 138 101
157 222 6
15 239 178
116 60 174
212 163 203
21 19 239
188 126 195
46 86 248
76 250 252
127 239 210
176 31 67
241 29 226
246 88 2
179 236 124
253 214 45
5 62 48
182 70 81
153 31 62
29 169 90
42 22 81
110 80 164
85 109 175
243 176 122
26 227 217
38 233 113
35 68 19
128 55 208
62 74 194
250 141 93
10 229 70
79 37 219
230 43 10
251 245 202
180 67 48
97 130 218
186 250 216
41 186 214
58 143 158
47 204 79
211 253 237
65 127 117
241 235 230
248 157 135
179 164 29
166 158 52
133 255 59
224 7 60
127 165 28
242 148 212
220 102 66
20 226 117
8 42 2
182 11 72
82 56 147
88 241 196
212 118 164
106 28 68
193 136 53
34 83 231
96 5 224
148 122 159
63 117 46
1 94 55
15 191 102
81 52 148
75 228 130
13 86 72
39 168 183
14 162 26
37 10 120
105 176 68
78 19 41
219 77 230
155 176 28
46 56 66
237 1 143
198 251 246
125 225 4
174 67 2
107 41 228
62 204 137
124 89 200
34 41 80
127 42 144
140 111 133
63 96 47
39 173 42
167 8 206
163 14 75
24 61 92
74 185 101
116 21 131
132 178 87
199 206 138
109 91 33
140 223 148
165 49 61
95 197 213
116 211 138
234 76 255
71 14 198
115 73 188
146 235 92
232 182 234
227 23 111
161 185 142
228 47 149
5 254 64
176 86 32
124 244 251
2 58 154
246 156 90
99 138 21
172 172 0
241 133 134
218 102 198
161 121 243
13 120 42
125 8 199
65 184 232
181 221 24
245 223 5
145 212 91
68 95 162
40 186 141
146 195 14
83 117 104
189 106 94
89 157 72
55 196 36
226 44 205
215 58 248
183 164 191
206 105 64
81 167 41
81 137 199
179 129 75
243 70 124
189 149 148
136 56 163
79 182 107
179 78 221
203 199 59
7 36 154
