P3
16 16
255
164 0 133
151 0 144
126 0 129
143 0 159
127 0 175
153 0 154
127 0 153
146 0 167
173 0 170
166 0 158
129 0 144
157 0 161
135 0 161
159 0 137
168 0 153
147 0 127
131 0 142
171 0 149
136 0 148
155 0 167
164 0 155
153 0 151
144 0 175
130 0 147
138 0 161
174 0 136
133 0 125
136 0 151
141 0 147
151 0 154
127 0 144
156 0 137
149 0 138
137 0 126
171 0 131
166 0 135
150 0 125
164 0 163
145 0 166
149 0 133
135 0 166
149 0 158
162 0 146
126 0 129
171 0 151
133 0 158
148 0 166
134 0 159
164 0 151
140 0 137
140 0 173
175 0 139
161 0 165
174 0 156
146 0 162
127 0 171
129 0 164
171 0 149
166 0 149
140 0 158
139 0 146
175 0 128
171 0 128
149 0 142
144 0 138
173 0 136
125 0 128
138 0 174
160 0 160
171 0 174
160 0 127
155 0 163
129 0 139
127 0 172
141 0 138
171 0 169
175 0 133
169 0 157
152 0 148
145 0 128
139 0 140
155 0 153
165 0 173
168 0 147
151 0 136
171 0 140
139 0 127
164 0 127
138 0 148
174 0 144
148 0 130
143 0 125
158 0 175
132 0 146
171 0 140
147 0 149
149 0 163
134 0 172
167 0 172
145 0 142
134 0 129
153 0 138
169 0 157
127 0 145
164 0 171
158 0 161
130 0 141
132 0 159
170 0 130
157 0 133
134 0 156
153 0 140
147 0 168
141 0 138
152 0 167
135 0 160
126 0 150
163 0 139
154 0 175
130 0 148
173 0 131
159 0 143
157 0 150
144 0 125
168 0 167
165 0 163
131 0 155
150 0 146
166 0 141
144 0 126
166 0 165
137 0 148
175 0 151
169 0 169
143 0 165
170 0 159
155 0 160
157 0 139
161 0 165
172 0 134
146 0 141
145 0 141
127 0 137
145 0 160
126 0 126
165 0 143
147 0 140
129 0 156
168 0 138
131 0 171
152 0 149
172 0 146
164 0 130
134 0 137
158 0 162
157 0 146
141 0 129
145 0 163
172 0 158
154 0 137
131 0 160
135 0 167
148 0 130
136 0 162
160 0 161
165 0 144
171 0 164
135 0 154
149 0 175
138 0 172
141 0 166
167 0 140
140 0 170
125 0 163
131 0 146
139 0 129
151 0 163
139 0 129
168 0 171
138 0 130
153 0 134
164 0 158
144 0 155
125 0 129
154 0 143
166 0 167
140 0 157
137 0 141
128 0 175
130 0 140
158 0 153
165 0 155
175 0 173
145 0 129
129 0 159
126 0 133
161 0 134
164 0 144
154 0 174
137 0 138
164 0 175
137 0 127
165 0 125
147 0 161
139 0 160
170 0 171
150 0 128
168 0 130
166 0 141
134 0 159
169 0 131
129 0 173
125 0 169
141 0 138
130 0 161
136 0 148
133 0 149
169 0 146
172 0 167
174 0 153
156 0 128
126 0 165
167 0 142
131 0 143
168 0 169
164 0 152
133 0 155
155 0 135
170 0 171
164 0 161
130 0 135
132 0 158
125 0 149
172 0 175
135 0 165
156 0 166
144 0 139
140 0 156
129 0 152
158 0 154
140 0 168
157 0 135
174 0 132
146 0 174
159 0 138
126 0 139
166 0 173
157 0 134
156 0 156
169 0 149
129 0 172
142 0 128
152 0 153
160 0 168
138 0 146
158 0 151
