P3
4 4
255
157 0 156
143 0 175
172 0 142
131 0 151
129 0 164
159 0 157
146 0 162
173 0 137
144 0 154
151 0 155
125 0 131
142 0 138
151 0 169
155 0 172
127 0 159
125 0 173
