P3
8 8
255
140 0 130
130 0 169
153 0 165
173 0 165
155 0 128
131 0 153
155 0 133
131 0 127
170 0 136
139 0 157
154 0 136
160 0 135
165 0 133
128 0 165
157 0 159
150 0 125
156 0 132
129 0 131
140 0 143
135 0 150
175 0 127
144 0 166
149 0 137
171 0 152
170 0 167
130 0 149
165 0 143
175 0 168
125 0 170
167 0 126
152 0 125
141 0 142
174 0 147
171 0 153
170 0 171
150 0 173
127 0 148
161 0 135
136 0 135
141 0 132
165 0 139
131 0 152
163 0 129
126 0 143
174 0 150
174 0 142
145 0 163
158 0 147
161 0 175
130 0 131
140 0 170
125 0 164
171 0 134
147 0 129
133 0 140
156 0 167
137 0 164
171 0 164
139 0 133
137 0 170
160 0 151
137 0 157
147 0 130
152 0 127
